<svg fill="none" height="51" viewBox="0 0 157 51" width="157" xmlns="http://www.w3.org/2000/svg" xmlns:xlink="http://www.w3.org/1999/xlink"><clipPath id="a"><path d="m0 0h157v51h-157z"/></clipPath><g clip-path="url(#a)"><path d="m147.599 30.4466v-10.2h-3.526v-3.3744h3.526v-5.982h3.76v5.982h4.858v3.3744h-4.858v9.97c0 2.224.94 3.1443 2.664 3.1443.705 0 1.175-.0767 1.723-.3068l1.332 3.1444c-.861.3835-1.723.5368-2.977.5368-4.309 0-6.502-2.3007-6.502-6.2887zm-24.13-3.7579c0-5.5218 3.917-10.3533 9.715-10.3533 5.954 0 9.714 4.0646 9.714 10.3533 0 .3068-.078.6903-.078.6903h-15.747c.235 4.1413 3.212 6.3654 6.346 6.3654 2.193 0 4.387-.8436 5.405-3.3745l3.291 1.3805c-1.175 2.7609-4.074 5.2917-8.696 5.2917-5.876 0-9.95-4.5248-9.95-10.3534zm9.715-7.0556c-2.742 0-4.936 1.8406-5.719 4.6782h11.516c-.078-1.6872-1.567-4.6782-5.797-4.6782zm-27.969 14.0346h-.157v2.6842h-3.603v-28.37595h3.76v8.97295l-.157 2.6842h.157c1.175-1.7639 3.604-3.3744 6.816-3.3744 5.014 0 9.479 4.4481 9.479 10.3533 0 5.9053-4.387 10.3534-9.479 10.3534-3.212.0767-5.719-1.4571-6.816-3.2977zm12.457-6.979c0-4.3714-2.977-7.0556-6.346-7.0556-3.291 0-6.346 2.6075-6.346 7.0556 0 4.4482 2.977 7.0557 6.346 7.0557 3.369-.0767 6.346-2.6842 6.346-7.0557zm-37.6835 3.8346c0-4.4481 4.0738-6.8255 8.6961-6.8255 2.6637 0 4.6222.7669 5.4057 1.227v-.5368c0-2.9143-2.4287-4.7549-5.1707-4.7549-2.0369 0-4.0738.997-4.7789 2.8376l-3.4471-1.4572c.7051-1.7639 3.0553-4.7548 8.0693-4.7548 4.8573 0 8.8528 2.8376 8.8528 8.3594v11.7338h-3.6038v-2.6842h-.1567c-1.0968 1.6105-3.1337 3.3744-6.5025 3.3744-3.9955 0-7.3642-2.4541-7.3642-6.5188zm14.1018-2.5308s-1.5669-1.3038-4.779-1.3038c-3.9171 0-5.484 2.0707-5.484 3.8346 0 2.0707 2.1936 3.0677 4.1522 3.0677 2.977.0767 6.1108-2.3775 6.1108-5.5985zm-31.1023-11.0436-.1567 2.6842h.1567c1.0184-1.7639 3.6038-3.3744 6.2674-3.3744 5.0923 0 7.5993 3.3744 7.5993 8.206v11.8872h-3.7604v-11.3504c0-4.0646-2.037-5.3684-4.9357-5.3684-3.2121 0-5.249 2.991-5.249 5.982v10.7368h-3.7605v-28.37595h3.7605zm-22.7196 16.7188h-.1567l.1567 2.6842v8.5895h-3.7605v-27.9925h3.6038v2.6842h.1567c1.1752-1.7639 3.6038-3.3744 6.8159-3.3744 5.0139 0 9.4795 4.4481 9.4795 10.3533 0 5.9053-4.4656 10.4301-9.5579 10.4301-3.1337 0-5.6407-1.5338-6.7375-3.3744zm12.4566-6.979c0-4.3714-2.9771-7.0556-6.3458-7.0556-3.2904 0-6.3458 2.6075-6.3458 7.0556 0 4.4482 2.977 7.0557 6.3458 7.0557 3.3687-.0767 6.3458-2.6842 6.3458-7.0557zm-23.8947 9.7399h3.7605v-28.45265h-3.7605zm-17.3139-28.45265-10.96806 28.45265h4.1522l2.82036-7.7459h12.2216l2.8203 7.7459h4.0739l-10.9681-28.45265zm1.9586 4.44815h.1567l4.7789 12.8842h-9.63621z" fill="#b4a6a2"/></g></svg>