<svg fill="none" height="51" viewBox="0 0 156 51" width="156" xmlns="http://www.w3.org/2000/svg"><g fill="#b4a6a2"><path d="m94.1139 36.5053c-9.4192 3.9113-19.6168 5.8286-28.8802 5.8286-13.7785 0-27.0898-3.6813-37.9102-9.8933-.9341-.5368-1.6347.4602-.8563 1.1504 9.9641 8.8195 23.1976 14.188 37.9102 14.188 10.4311 0 22.5748-3.2978 30.982-9.3564 1.3234-.997.0779-2.5309-1.2455-1.9173z"/><path d="m88.8205 33.0541c-.7006.5369-.545 1.2271.2335 1.1504 2.6467-.3067 8.7185-.997 9.8084.3835 1.0898 1.3804-1.1677 6.9022-2.1797 9.4331-.3113.7669.3893 1.0736 1.012.5368 4.5153-3.6812 5.6823-11.5038 4.6703-12.5774-.934-1.3038-8.796-2.2241-13.5445 1.0736z"/><path d="m105.168 23.6211c-2.569-1.4572-5.6049-1.8406-8.4073-1.7639l7.6283-10.7369c.701-.9203 1.09-1.53382 1.09-1.99397v-2.7609c0-.53684-.389-.76692-.856-.76692h-14.7126c-.4671 0-.7785.38346-.7785.76692v3.22105c0 .53682.3892.76692.8563.76692h7.7066l-8.8743 12.4241c-.5449.7669-.5449 1.6872-.5449 2.224v3.2978c0 .5368.5449.997 1.012.6902 4.982-2.6075 10.9764-2.3775 15.4914 0 .545.3068 1.089-.3068 1.089-.6902v-3.3745c0-.5368-.155-.9203-.7-1.3037z"/><path d="m31.2156 29.7565h4.515c.5449 0 .8563-.3835.8563-.7669v-11.9639c0-2.6075-.1557-6.2121 3.1138-6.2121 3.1916 0 2.7245 3.6813 2.7245 6.2121v11.9639c0 .4601.3892.7669.7785.7669h4.5149c.5449 0 .8563-.3835.8563-.7669v-11.9639c0-1.3038-.0778-3.2211.4671-4.3715.467-1.1503 1.5569-1.8406 2.6467-1.8406 1.3233 0 2.3353.4602 2.5688 1.9173.2336.9203.1557 3.2978.1557 4.2181v11.9639c0 .4601.3893.7669.7785.7669h4.5149c.545 0 .8563-.3834.8563-.7669v-14.2647c0-2.4541.3114-5.215-1.1676-7.05561-1.2455-1.68721-3.3473-2.53082-5.1378-2.53082-2.5688 0-5.0598 1.38045-6.1497 4.21804-1.2455-2.83759-2.958-4.21804-5.7604-4.21804-2.7246 0-4.7485 1.38045-5.8384 4.21804h-.0778v-2.91428c0-.46015-.3892-.69023-.7784-.76692h-4.1258c-.5449 0-.8563.38346-.8563.76692v22.54737c-.2335.4601.0779.7669.5449.8436z"/><path d="m118.09 5.13843c-6.461 0-10.042 5.52177-10.042 12.50077 0 6.9789 3.581 12.5774 10.042 12.5774 6.228 0 10.198-5.5218 10.198-12.3473.077-7.0557-3.503-12.73087-10.198-12.73087zm0 20.39997c-3.503 0-3.503-5.9052-3.503-8.6661s.234-7.13237 3.503-7.13237c1.479 0 2.413.61357 2.88 2.22407.545 1.7639.623 4.0647.623 5.9819.156 2.9143 0 7.5925-3.503 7.5925z"/><path d="m143.623 5.13843c-3.114 0-4.827 1.53383-6.072 4.6015h-.078v-3.45113c-.078-.38345-.467-.61353-.778-.61353h-4.126c-.467 0-.779.38346-.856.69023v22.5474c0 .4601.389.7669.778.7669h4.437c.545 0 .857-.3835.857-.7669v-12.1173c0-1.5339.077-2.9143.7-4.2948.545-1.0737 1.557-1.7639 2.569-1.7639 3.114 0 2.802 3.6045 2.802 6.0587v12.2706c.078.3835.39.6903.779.6903h4.515c.467 0 .778-.3068.856-.6903v-14.1879c0-2.2241 0-5.21506-1.168-6.97897-1.245-2.07068-3.191-2.7609-5.215-2.7609z"/><path d="m77.5331 14.4948c-2.5688.3068-5.9161.5368-8.4071 1.5338-2.8024 1.2271-4.7486 3.6045-4.7486 7.2091 0 4.6015 2.8803 6.8255 6.6947 6.8255 3.1916 0 4.9042-.6902 7.3952-3.221.7784 1.1503 1.0898 1.6872 2.5688 2.9142.3893.1534.7006.1534 1.0899-.0766.8562-.767 2.5688-2.1474 3.4251-2.9143.3892-.3068.3114-.7669 0-1.1504-.7784-1.1504-1.6347-1.994-1.6347-4.0647v-6.8255c0-2.9143.2335-5.59853-1.9461-7.59251-1.6348-1.61053-4.5929-2.22406-6.7725-2.22406-4.2814 0-8.9521 1.53383-9.9641 6.67217-.0778.5368.3114.8436.6228.9203l4.2036.5369c.467 0 .7006-.4602.7784-.767.3892-1.7639 1.8683-2.60749 3.5809-2.60749.9341 0 1.9461.38349 2.5688 1.15039.6228.9203.5449 2.1474.5449 3.221zm-.9341 9.1263c-.7006 1.2271-1.7904 1.994-3.1138 1.994-1.7125 0-2.7245-1.3038-2.7245-3.2211 0-3.7579 3.4251-4.4481 6.6946-4.4481v.9203c.0778 1.8406.0778 3.2978-.8563 4.7549z"/><path d="m26.9342 25.6151c-.7784-1.1504-1.6347-1.994-1.6347-4.0647v-6.8255c0-2.9143.2335-5.59853-1.9461-7.59251-1.7126-1.61053-4.5928-2.22406-6.7725-2.22406-4.2814 0-8.95207 1.53383-9.96404 6.67217-.07785.5368.31138.8436.62275.9203l4.35929.4602c.4671 0 .7006-.4602.7784-.767.3893-1.7639 1.8683-2.60748 3.6587-2.60748.9342 0 1.9461.38346 2.5689 1.15038.6227.9203.5449 2.1474.5449 3.2211v.5368c-2.6467.3068-5.994.5368-8.485 1.5338-2.80243 1.2271-4.74854 3.6045-4.74854 7.2091 0 4.6015 2.88024 6.8255 6.69464 6.8255 3.1916 0 4.9042-.6902 7.3952-3.221.7784 1.1503 1.0898 1.6872 2.5688 2.9142.3893.1534.7006.1534 1.0899-.0766.8563-.767 2.5688-2.1474 3.4251-2.9143.2335-.3068.1557-.7669-.1557-1.1504zm-8.7185-1.994c-.7006 1.2271-1.7905 1.994-3.1138 1.994-1.7126 0-2.6467-1.3038-2.6467-3.2211 0-3.7579 3.4251-4.4481 6.6946-4.4481v.9203c-.1557 1.8406-.0779 3.2978-.9341 4.7549z"/></g></svg>