<svg width="40" height="78" viewBox="0 0 40 78" fill="none" xmlns="http://www.w3.org/2000/svg">
<path fill-rule="evenodd" clip-rule="evenodd" d="M16.7943 77.4766L23.3448 61.5335L39.1592 54.9292L32.6086 38.9862L39.1592 23.042L23.3448 16.4377L16.7943 0.494644L0.108093 7.46306V38.6221L0.108144 39.2361L0.108093 39.8652V70.5082L16.7943 77.4766ZM1.85178 36.8641V8.63771L15.8506 2.79156L21.6491 16.9042L1.85178 36.8641ZM22.8821 18.1473L36.8809 23.9934L31.0824 38.1072H3.08475L22.8821 18.1473ZM3.08586 39.8652H31.0824L36.8809 53.9778L22.8821 59.8239L3.08586 39.8652ZM21.6491 61.067L15.8506 75.1796L1.85178 69.3335V41.1071L21.6491 61.067Z" fill="#243054"/>
</svg>
